<?xml version="1.0" encoding="UTF-8" standalone="no"?>
<!-- Created with Inkscape (http://www.inkscape.org/) -->

<svg
   version="1.1"
   id="svg1"
   width="1638.4972"
   height="267.24002"
   viewBox="0 0 1638.4972 267.24003"
   sodipodi:docname="COE_logo_color_cmyk.ai"
   xmlns:inkscape="http://www.inkscape.org/namespaces/inkscape"
   xmlns:sodipodi="http://sodipodi.sourceforge.net/DTD/sodipodi-0.dtd"
   xmlns="http://www.w3.org/2000/svg"
   xmlns:svg="http://www.w3.org/2000/svg">
  <defs
     id="defs1">
    <clipPath
       clipPathUnits="userSpaceOnUse"
       id="clipPath2">
      <path
         d="M 0,799.92 H 1280.16 V 0 H 0 Z"
         transform="translate(-791.27064,-408.51611)"
         id="path2" />
    </clipPath>
    <clipPath
       clipPathUnits="userSpaceOnUse"
       id="clipPath4">
      <path
         d="M 0,799.92 H 1280.16 V 0 H 0 Z"
         id="path4" />
    </clipPath>
    <clipPath
       clipPathUnits="userSpaceOnUse"
       id="clipPath6">
      <path
         d="M 0,799.92 H 1280.16 V 0 H 0 Z"
         transform="translate(-711.57722,-498.40041)"
         id="path6" />
    </clipPath>
    <clipPath
       clipPathUnits="userSpaceOnUse"
       id="clipPath8">
      <path
         d="M 0,799.92 H 1280.16 V 0 H 0 Z"
         transform="translate(-615.11531,-470.30271)"
         id="path8" />
    </clipPath>
    <clipPath
       clipPathUnits="userSpaceOnUse"
       id="clipPath10">
      <path
         d="M 0,799.92 H 1280.16 V 0 H 0 Z"
         transform="translate(-476.80811,-498.40041)"
         id="path10" />
    </clipPath>
    <clipPath
       clipPathUnits="userSpaceOnUse"
       id="clipPath12">
      <path
         d="M 0,799.92 H 1280.16 V 0 H 0 Z"
         transform="translate(-456.42631,-495.34811)"
         id="path12" />
    </clipPath>
    <clipPath
       clipPathUnits="userSpaceOnUse"
       id="clipPath14">
      <path
         d="M 0,799.92 H 1280.16 V 0 H 0 Z"
         transform="translate(-339.58401,-493.57321)"
         id="path14" />
    </clipPath>
    <clipPath
       clipPathUnits="userSpaceOnUse"
       id="clipPath16">
      <path
         d="M 0,799.92 H 1280.16 V 0 H 0 Z"
         id="path16" />
    </clipPath>
    <clipPath
       clipPathUnits="userSpaceOnUse"
       id="clipPath18">
      <path
         d="M 0,799.92 H 1280.16 V 0 H 0 Z"
         transform="translate(-301.73391,-334.65531)"
         id="path18" />
    </clipPath>
    <clipPath
       clipPathUnits="userSpaceOnUse"
       id="clipPath20">
      <path
         d="M 0,799.92 H 1280.16 V 0 H 0 Z"
         transform="translate(-338.40241,-340.36041)"
         id="path20" />
    </clipPath>
    <clipPath
       clipPathUnits="userSpaceOnUse"
       id="clipPath22">
      <path
         d="M 0,799.92 H 1280.16 V 0 H 0 Z"
         transform="translate(-388.70511,-312.92091)"
         id="path22" />
    </clipPath>
    <clipPath
       clipPathUnits="userSpaceOnUse"
       id="clipPath24">
      <path
         d="M 0,799.92 H 1280.16 V 0 H 0 Z"
         transform="translate(-427.78321,-312.92091)"
         id="path24" />
    </clipPath>
    <clipPath
       clipPathUnits="userSpaceOnUse"
       id="clipPath26">
      <path
         d="M 0,799.92 H 1280.16 V 0 H 0 Z"
         transform="translate(-466.85941,-340.29591)"
         id="path26" />
    </clipPath>
    <clipPath
       clipPathUnits="userSpaceOnUse"
       id="clipPath28">
      <path
         d="M 0,799.92 H 1280.16 V 0 H 0 Z"
         transform="translate(-544.14701,-329.46001)"
         id="path28" />
    </clipPath>
    <clipPath
       clipPathUnits="userSpaceOnUse"
       id="clipPath30">
      <path
         d="M 0,799.92 H 1280.16 V 0 H 0 Z"
         transform="translate(-568.58842,-340.29591)"
         id="path30" />
    </clipPath>
    <clipPath
       clipPathUnits="userSpaceOnUse"
       id="clipPath32">
      <path
         d="M 0,799.92 H 1280.16 V 0 H 0 Z"
         transform="translate(-637.12412,-329.43361)"
         id="path32" />
    </clipPath>
    <clipPath
       clipPathUnits="userSpaceOnUse"
       id="clipPath34">
      <path
         d="M 0,799.92 H 1280.16 V 0 H 0 Z"
         transform="translate(-671.54891,-329.38571)"
         id="path34" />
    </clipPath>
    <clipPath
       clipPathUnits="userSpaceOnUse"
       id="clipPath36">
      <path
         d="M 0,799.92 H 1280.16 V 0 H 0 Z"
         transform="translate(-726.02742,-340.29591)"
         id="path36" />
    </clipPath>
    <clipPath
       clipPathUnits="userSpaceOnUse"
       id="clipPath38">
      <path
         d="M 0,799.92 H 1280.16 V 0 H 0 Z"
         transform="translate(-756.42294,-351.06931)"
         id="path38" />
    </clipPath>
    <clipPath
       clipPathUnits="userSpaceOnUse"
       id="clipPath40">
      <path
         d="M 0,799.92 H 1280.16 V 0 H 0 Z"
         transform="translate(-869.59585,-329.46001)"
         id="path40" />
    </clipPath>
    <clipPath
       clipPathUnits="userSpaceOnUse"
       id="clipPath42">
      <path
         d="M 0,799.92 H 1280.16 V 0 H 0 Z"
         id="path42" />
    </clipPath>
    <clipPath
       clipPathUnits="userSpaceOnUse"
       id="clipPath44">
      <path
         d="M 0,799.92 H 1280.16 V 0 H 0 Z"
         transform="translate(-911.4727,-351.06931)"
         id="path44" />
    </clipPath>
    <clipPath
       clipPathUnits="userSpaceOnUse"
       id="clipPath46">
      <path
         d="M 0,799.92 H 1280.16 V 0 H 0 Z"
         transform="translate(-989.65442,-340.29591)"
         id="path46" />
    </clipPath>
    <clipPath
       clipPathUnits="userSpaceOnUse"
       id="clipPath48">
      <path
         d="M 0,799.92 H 1280.16 V 0 H 0 Z"
         transform="translate(-1033.6446,-340.29591)"
         id="path48" />
    </clipPath>
    <clipPath
       clipPathUnits="userSpaceOnUse"
       id="clipPath50">
      <path
         d="M 0,799.92 H 1280.16 V 0 H 0 Z"
         transform="translate(-1076.8575,-329.14361)"
         id="path50" />
    </clipPath>
    <clipPath
       clipPathUnits="userSpaceOnUse"
       id="clipPath52">
      <path
         d="M 0,799.92 H 1280.16 V 0 H 0 Z"
         id="path52" />
    </clipPath>
    <clipPath
       clipPathUnits="userSpaceOnUse"
       id="clipPath54">
      <path
         d="M 0,799.92 H 1280.16 V 0 H 0 Z"
         transform="translate(-1144.1964,-351.06931)"
         id="path54" />
    </clipPath>
    <clipPath
       clipPathUnits="userSpaceOnUse"
       id="clipPath56">
      <path
         d="M 0,799.92 H 1280.16 V 0 H 0 Z"
         transform="translate(-1256.0694,-329.46001)"
         id="path56" />
    </clipPath>
    <clipPath
       clipPathUnits="userSpaceOnUse"
       id="clipPath58">
      <path
         d="M 0,799.92 H 1280.16 V 0 H 0 Z"
         transform="translate(-223.3423,-374.25541)"
         id="path58" />
    </clipPath>
    <clipPath
       clipPathUnits="userSpaceOnUse"
       id="clipPath60">
      <path
         d="M 0,799.92 H 1280.16 V 0 H 0 Z"
         transform="translate(-202.27641,-473.74951)"
         id="path60" />
    </clipPath>
    <clipPath
       clipPathUnits="userSpaceOnUse"
       id="clipPath62">
      <path
         d="M 0,799.92 H 1280.16 V 0 H 0 Z"
         transform="translate(-222.30421,-362.13381)"
         id="path62" />
    </clipPath>
    <clipPath
       clipPathUnits="userSpaceOnUse"
       id="clipPath64">
      <path
         d="M 0,799.92 H 1280.16 V 0 H 0 Z"
         transform="translate(-53.787202,-468.74761)"
         id="path64" />
    </clipPath>
    <clipPath
       clipPathUnits="userSpaceOnUse"
       id="clipPath66">
      <path
         d="M 0,799.92 H 1280.16 V 0 H 0 Z"
         transform="translate(-47.684601,-453.83251)"
         id="path66" />
    </clipPath>
    <clipPath
       clipPathUnits="userSpaceOnUse"
       id="clipPath68">
      <path
         d="M 0,799.92 H 1280.16 V 0 H 0 Z"
         transform="translate(-199.5616,-477.24021)"
         id="path68" />
    </clipPath>
    <clipPath
       clipPathUnits="userSpaceOnUse"
       id="clipPath70">
      <path
         d="M 0,799.92 H 1280.16 V 0 H 0 Z"
         transform="translate(-107.8248,-445.75491)"
         id="path70" />
    </clipPath>
    <clipPath
       clipPathUnits="userSpaceOnUse"
       id="clipPath72">
      <path
         d="M 0,799.92 H 1280.16 V 0 H 0 Z"
         transform="translate(-135.0987,-419.70211)"
         id="path72" />
    </clipPath>
    <clipPath
       clipPathUnits="userSpaceOnUse"
       id="clipPath74">
      <path
         d="M 0,799.92 H 1280.16 V 0 H 0 Z"
         transform="translate(-67.997102,-458.97461)"
         id="path74" />
    </clipPath>
    <clipPath
       clipPathUnits="userSpaceOnUse"
       id="clipPath76">
      <path
         d="M 0,799.92 H 1280.16 V 0 H 0 Z"
         transform="translate(-75.935102,-376.70611)"
         id="path76" />
    </clipPath>
    <clipPath
       clipPathUnits="userSpaceOnUse"
       id="clipPath78">
      <path
         d="M 0,799.92 H 1280.16 V 0 H 0 Z"
         transform="translate(-137.877,-330.32031)"
         id="path78" />
    </clipPath>
    <clipPath
       clipPathUnits="userSpaceOnUse"
       id="clipPath80">
      <path
         d="M 0,799.92 H 1280.16 V 0 H 0 Z"
         transform="translate(-85.753502,-416.24851)"
         id="path80" />
    </clipPath>
    <clipPath
       clipPathUnits="userSpaceOnUse"
       id="clipPath82">
      <path
         d="M 0,799.92 H 1280.16 V 0 H 0 Z"
         transform="translate(-175.30911,-306.40331)"
         id="path82" />
    </clipPath>
    <clipPath
       clipPathUnits="userSpaceOnUse"
       id="clipPath84">
      <path
         d="M 0,799.92 H 1280.16 V 0 H 0 Z"
         transform="translate(-129.814,-427.01761)"
         id="path84" />
    </clipPath>
    <clipPath
       clipPathUnits="userSpaceOnUse"
       id="clipPath86">
      <path
         d="M 0,799.92 H 1280.16 V 0 H 0 Z"
         transform="translate(-86.918005,-352.89651)"
         id="path86" />
    </clipPath>
    <clipPath
       clipPathUnits="userSpaceOnUse"
       id="clipPath88">
      <path
         d="M 0,799.92 H 1280.16 V 0 H 0 Z"
         transform="translate(-138.07431,-338.79591)"
         id="path88" />
    </clipPath>
    <clipPath
       clipPathUnits="userSpaceOnUse"
       id="clipPath90">
      <path
         d="M 0,799.92 H 1280.16 V 0 H 0 Z"
         transform="translate(-162.54351,-498.86521)"
         id="path90" />
    </clipPath>
  </defs>
  <sodipodi:namedview
     id="namedview1"
     pagecolor="#505050"
     bordercolor="#eeeeee"
     borderopacity="1"
     inkscape:showpageshadow="0"
     inkscape:pageopacity="0"
     inkscape:pagecheckerboard="0"
     inkscape:deskcolor="#d1d1d1">
    <inkscape:page
       x="0"
       y="0"
       width="1638.4972"
       height="267.24002"
       id="page2"
       margin="0"
       bleed="0" />
  </sodipodi:namedview>
  <g
     id="layer-MC0"
     inkscape:groupmode="layer"
     inkscape:label="Layer 1"
     transform="translate(-37.58667,-398.6133)">
    <g
       id="g90">
      <path
         id="path1"
         d="m 0,0 9.766,25.837 1.7,-1.473 c 5.994,-4.885 14.134,-9.048 21.802,-9.211 6.866,-0.158 10.219,1.669 9.305,7.473 -0.675,4.342 -5.571,5.107 -8.629,5.709 l -6.718,1.342 C 14.165,32.115 3.173,40.175 3.173,55.438 c 0,23.086 19.907,36.031 39.914,36.031 10.516,0 20.154,-2.677 29.184,-8.545 L 63.789,60.028 c -4.646,3.354 -11.682,8.065 -20.602,8.387 -2.926,0.111 -9.628,-1.426 -7.484,-8.239 0.924,-2.894 5.086,-4.114 7.637,-4.738 l 7.573,-1.827 C 65.068,50.316 75.319,42.256 75.319,25.774 75.319,2.572 55.303,-8.915 35.412,-8.915 23.813,-8.915 10.372,-5.615 0,0"
         style="fill:#b88d06;fill-opacity:1;fill-rule:nonzero;stroke:none"
         transform="matrix(1.3333333,0,0,-1.3333333,1055.0275,521.87187)"
         clip-path="url(#clipPath2)" />
      <path
         id="path3"
         d="m 749.99,498.4 h 34.082 V 401.058 H 749.99 Z"
         style="fill:#b88d06;fill-opacity:1;fill-rule:nonzero;stroke:none"
         transform="matrix(1.3333333,0,0,-1.3333333,0,1066.56)"
         clip-path="url(#clipPath4)" />
      <path
         id="path5"
         d="M 0,0 H 34.912 L -0.734,-97.342 H -29.058 L -64.592,0 h 34.789 l 14.904,-58.734 z"
         style="fill:#b88d06;fill-opacity:1;fill-rule:nonzero;stroke:none"
         transform="matrix(1.3333333,0,0,-1.3333333,948.7696,402.02613)"
         clip-path="url(#clipPath6)" />
      <path
         id="path7"
         d="m 0,0 v 0 c 0.622,-4.141 6.723,-33.937 6.723,-33.937 h -13.39 z m -50.789,-69.244 h 35.411 l 2.688,12.221 h 25.266 l 3.353,-12.221 H 51.348 L 18.19,28.098 h -37.141 z"
         style="fill:#b88d06;fill-opacity:1;fill-rule:nonzero;stroke:none"
         transform="matrix(1.3333333,0,0,-1.3333333,820.15373,439.48973)"
         clip-path="url(#clipPath8)" />
      <path
         id="path9"
         d="m 0,0 h 34.894 c 31.136,0 54.938,-14.296 54.938,-50.073 0,-28.825 -19.403,-47.269 -46.635,-47.269 L 0,-97.289 Z m 34.293,-69.386 h 2.281 c 11.235,0 19.563,6.733 19.563,19.434 0,13.679 -7.384,21.311 -19.715,21.311 h -2.129 z"
         style="fill:#b88d06;fill-opacity:1;fill-rule:nonzero;stroke:none"
         transform="matrix(1.3333333,0,0,-1.3333333,635.74413,402.02613)"
         clip-path="url(#clipPath10)" />
      <path
         id="path11"
         d="m 0,0 1.818,-15.971 c 0.428,-3.792 2.587,-12.892 -0.08,-11.673 -1.674,0.751 -3.052,4.881 -4.426,8.536 -0.697,1.858 -4.013,10.652 -4.88,11.302 -4.194,3.138 -14.657,6.671 -21.727,6.708 -21.465,0.078 -35.662,-15.755 -35.662,-43.848 0,-20.148 9.65,-44.32 34.188,-44.32 8.793,0 25.637,2.767 30.221,15.278 2.064,5.667 3.965,10.696 5.339,9.169 1.02,-1.114 -0.306,-5.651 -0.918,-8.091 -2.89,-11.598 -3.049,-15.116 -3.968,-15.565 -11.085,-5.566 -25.304,-7.399 -37.752,-7.399 -39.57,0 -53.233,23.085 -53.233,46.165 0,40.054 24.602,56.929 62.745,55.201 C -18.69,5.128 -9.042,3.417 0,0"
         style="fill:#b88d06;fill-opacity:1;fill-rule:nonzero;stroke:none"
         transform="matrix(1.3333333,0,0,-1.3333333,608.5684,406.09587)"
         clip-path="url(#clipPath12)" />
      <path
         id="path13"
         d="m 0,0 -6.332,2.213 c -2.135,1.912 0.459,2.445 0.459,2.445 0,0 9.158,-1.695 31.974,0.233 0,0 1.981,-0.391 0.608,-1.996 L 19.23,-0.306 C 14.349,-2.445 14.349,-1.22 14.349,-6.565 l -0.041,-49.607 c 0,-38.797 -39.464,-37.927 -47.154,-37.927 -3.654,0 -39.849,0 -39.849,31.151 v 52.507 c 0,9.158 0.977,8.915 -2.07,9.992 l -9.158,3.433 c 0,0 -1.542,2.197 1.22,2.06 7.473,-0.386 18.316,-1.991 43.789,-0.153 0,0 2.213,-0.533 0.76,-2.139 L -45.77,0.613 C -51.569,-1.986 -50.803,0 -50.956,-5.952 l 0.18,-51.778 c 0,-12.702 6.527,-28.415 27.088,-28.415 27.966,0 28.225,24.195 28.225,29.571 L 4.59,-5.281 C 4.885,-0.449 4.278,-1.827 0,0"
         style="fill:#b88d06;fill-opacity:1;fill-rule:nonzero;stroke:none"
         transform="matrix(1.3333333,0,0,-1.3333333,452.77867,408.4624)"
         clip-path="url(#clipPath14)" />
    </g>
    <path
       id="path15"
       d="M 1257.063,375.428 H 266.9 v 4.056 h 990.163 z"
       style="fill:#b88d06;fill-opacity:1;fill-rule:nonzero;stroke:none"
       transform="matrix(1.3333333,0,0,-1.3333333,0,1066.56)"
       clip-path="url(#clipPath16)" />
    <g
       id="g91">
      <path
         id="path17"
         d="m 0,0 c -0.655,0.888 -1.399,1.664 -2.234,2.33 -0.834,0.665 -1.732,1.225 -2.694,1.679 -0.961,0.455 -1.97,0.798 -3.026,1.03 -1.056,0.232 -2.123,0.349 -3.2,0.349 -1.944,0 -3.719,-0.349 -5.324,-1.046 -1.606,-0.697 -2.979,-1.658 -4.12,-2.884 -1.141,-1.226 -2.027,-2.662 -2.661,-4.31 -0.634,-1.646 -0.951,-3.419 -0.951,-5.321 0,-1.943 0.317,-3.727 0.951,-5.354 0.634,-1.626 1.531,-3.027 2.693,-4.199 1.162,-1.172 2.556,-2.091 4.183,-2.756 1.626,-0.666 3.433,-0.998 5.419,-0.998 1.035,0 2.065,0.121 3.089,0.364 1.025,0.242 2.007,0.591 2.947,1.045 0.941,0.455 1.828,0.999 2.663,1.632 0.834,0.634 1.589,1.352 2.265,2.155 v -15.241 c -1.056,-0.318 -2.049,-0.619 -2.979,-0.905 -0.929,-0.285 -1.838,-0.528 -2.725,-0.728 -0.887,-0.201 -1.78,-0.36 -2.677,-0.475 -0.898,-0.117 -1.844,-0.175 -2.837,-0.175 -3.422,0 -6.702,0.624 -9.84,1.871 -3.136,1.246 -5.984,3.02 -8.54,5.322 -2.704,2.452 -4.69,5.234 -5.957,8.351 -1.268,3.116 -1.902,6.501 -1.902,10.155 0,3.357 0.614,6.578 1.838,9.662 1.226,3.085 3.021,5.831 5.388,8.239 1.204,1.226 2.524,2.329 3.96,3.311 1.437,0.981 2.954,1.816 4.548,2.502 1.596,0.688 3.248,1.21 4.96,1.57 1.711,0.359 3.422,0.538 5.133,0.538 2.049,0 4.025,-0.217 5.926,-0.65 1.901,-0.432 3.803,-1.04 5.704,-1.822 z"
         style="fill:#114781;fill-opacity:1;fill-rule:nonzero;stroke:none"
         transform="matrix(1.3333333,0,0,-1.3333333,402.31187,620.35293)"
         clip-path="url(#clipPath18)" />
      <path
         id="path19"
         d="m 0,0 c -1.901,0 -3.687,-0.354 -5.355,-1.062 -1.67,-0.709 -3.133,-1.659 -4.39,-2.852 -1.256,-1.194 -2.249,-2.566 -2.978,-4.12 -0.729,-1.553 -1.093,-3.172 -1.093,-4.862 0,-2.113 0.364,-4.06 1.093,-5.844 0.729,-1.786 1.722,-3.328 2.978,-4.627 1.257,-1.3 2.72,-2.314 4.39,-3.043 1.668,-0.728 3.454,-1.093 5.355,-1.093 1.901,0 3.691,0.365 5.371,1.093 1.68,0.729 3.143,1.743 4.389,3.043 1.246,1.299 2.234,2.841 2.963,4.627 0.729,1.784 1.092,3.731 1.092,5.844 0,1.69 -0.363,3.309 -1.092,4.862 -0.729,1.554 -1.717,2.926 -2.963,4.12 C 8.514,-2.721 7.051,-1.771 5.371,-1.062 3.691,-0.354 1.901,0 0,0 m 0,12.325 c 2.345,0 4.642,-0.28 6.893,-0.84 2.249,-0.559 4.378,-1.357 6.384,-2.392 2.008,-1.035 3.857,-2.298 5.546,-3.786 1.69,-1.489 3.142,-3.168 4.357,-5.038 1.215,-1.871 2.166,-3.904 2.852,-6.1 0.686,-2.197 1.03,-4.53 1.03,-7.001 0,-3.971 -0.67,-7.609 -2.012,-10.916 -1.342,-3.306 -3.217,-6.148 -5.624,-8.523 -2.409,-2.377 -5.266,-4.231 -8.573,-5.562 C 7.547,-39.165 3.93,-39.83 0,-39.83 c -2.62,0 -5.107,0.302 -7.462,0.904 -2.357,0.601 -4.532,1.462 -6.529,2.582 -1.996,1.119 -3.802,2.477 -5.419,4.073 -1.616,1.594 -2.989,3.395 -4.119,5.402 -1.131,2.007 -2.002,4.188 -2.615,6.544 -0.612,2.355 -0.918,4.852 -0.918,7.493 0,2.471 0.343,4.804 1.03,7.001 0.686,2.196 1.641,4.229 2.867,6.1 1.225,1.87 2.678,3.549 4.357,5.038 1.68,1.488 3.523,2.751 5.53,3.786 2.007,1.035 4.136,1.833 6.385,2.392 2.25,0.56 4.548,0.84 6.893,0.84"
         style="fill:#114781;fill-opacity:1;fill-rule:nonzero;stroke:none"
         transform="matrix(1.3333333,0,0,-1.3333333,451.2032,612.74613)"
         clip-path="url(#clipPath20)" />
      <path
         id="path21"
         d="M 0,0 H 15.274 V -10.774 H -12.707 V 38.148 H 0 Z"
         style="fill:#114781;fill-opacity:1;fill-rule:nonzero;stroke:none"
         transform="matrix(1.3333333,0,0,-1.3333333,518.27347,649.33213)"
         clip-path="url(#clipPath22)" />
      <path
         id="path23"
         d="M 0,0 H 15.273 V -10.774 H -12.708 V 38.148 H 0 Z"
         style="fill:#114781;fill-opacity:1;fill-rule:nonzero;stroke:none"
         transform="matrix(1.3333333,0,0,-1.3333333,570.3776,649.33213)"
         clip-path="url(#clipPath24)" />
      <path
         id="path25"
         d="M 0,0 V -8.176 H 14.355 V -18.945 H 0 v -8.43 H 15.146 V -38.149 H -12.708 V 10.773 H 15.146 V 0 Z"
         style="fill:#114781;fill-opacity:1;fill-rule:nonzero;stroke:none"
         transform="matrix(1.3333333,0,0,-1.3333333,622.4792,612.83213)"
         clip-path="url(#clipPath26)" />
      <path
         id="path27"
         d="m 0,0 c -0.042,-1.773 -0.117,-3.495 -0.222,-5.163 -0.105,-1.668 -0.332,-3.3 -0.68,-4.896 -0.35,-1.594 -0.846,-3.159 -1.49,-4.689 -0.645,-1.532 -1.516,-3.059 -2.614,-4.58 -1.205,-1.668 -2.545,-3.11 -4.023,-4.325 -1.478,-1.215 -3.074,-2.213 -4.784,-2.994 -1.71,-0.782 -3.517,-1.359 -5.417,-1.728 -1.902,-0.37 -3.877,-0.555 -5.926,-0.555 -3.845,0 -7.368,0.624 -10.57,1.87 -3.2,1.247 -5.951,3.006 -8.254,5.277 -2.303,2.27 -4.093,4.99 -5.372,8.159 -1.277,3.169 -1.917,6.676 -1.917,10.52 0,3.97 0.645,7.576 1.933,10.819 1.289,3.243 3.101,6.01 5.435,8.303 2.335,2.291 5.129,4.065 8.381,5.322 3.254,1.257 6.856,1.886 10.807,1.886 5.027,0 9.433,-1.136 13.213,-3.407 3.78,-2.27 6.725,-5.698 8.838,-10.282 l -12.07,-5.039 c -0.443,1.163 -1.003,2.219 -1.678,3.169 -0.676,0.951 -1.458,1.77 -2.346,2.456 -0.887,0.687 -1.88,1.215 -2.978,1.585 -1.099,0.369 -2.292,0.554 -3.581,0.554 -2.092,0 -3.93,-0.454 -5.514,-1.362 -1.585,-0.909 -2.91,-2.097 -3.977,-3.565 -1.068,-1.469 -1.87,-3.121 -2.409,-4.96 -0.538,-1.836 -0.807,-3.684 -0.807,-5.543 0,-1.9 0.28,-3.765 0.84,-5.592 0.559,-1.827 1.382,-3.464 2.471,-4.912 1.088,-1.447 2.44,-2.608 4.057,-3.485 1.615,-0.877 3.468,-1.316 5.56,-1.316 1.374,0 2.657,0.18 3.851,0.539 1.194,0.36 2.24,0.893 3.137,1.601 0.898,0.708 1.632,1.59 2.202,2.645 0.571,1.057 0.919,2.293 1.046,3.709 H -25.251 V 0 Z"
         style="fill:#114781;fill-opacity:1;fill-rule:nonzero;stroke:none"
         transform="matrix(1.3333333,0,0,-1.3333333,725.52933,627.28)"
         clip-path="url(#clipPath28)" />
      <path
         id="path29"
         d="M 0,0 V -8.176 H 14.355 V -18.945 H 0 v -8.43 H 15.148 V -38.149 H -12.707 V 10.773 H 15.148 V 0 Z"
         style="fill:#114781;fill-opacity:1;fill-rule:nonzero;stroke:none"
         transform="matrix(1.3333333,0,0,-1.3333333,758.11787,612.83213)"
         clip-path="url(#clipPath30)" />
      <path
         id="path31"
         d="m 0,0 c -1.357,0 -2.635,-0.253 -3.823,-0.761 -1.194,-0.506 -2.239,-1.181 -3.132,-2.032 -0.898,-0.855 -1.611,-1.832 -2.128,-2.94 -0.523,-1.109 -0.782,-2.271 -0.782,-3.476 0,-1.505 0.259,-2.899 0.782,-4.172 0.517,-1.272 1.23,-2.376 2.128,-3.306 0.893,-0.924 1.938,-1.648 3.132,-2.171 1.188,-0.517 2.466,-0.782 3.823,-0.782 1.358,0 2.636,0.265 3.835,0.782 1.198,0.523 2.244,1.247 3.132,2.171 0.892,0.93 1.595,2.034 2.117,3.306 0.518,1.273 0.782,2.667 0.782,4.172 0,1.205 -0.264,2.367 -0.782,3.476 -0.522,1.108 -1.225,2.085 -2.117,2.94 C 6.079,-1.942 5.033,-1.267 3.835,-0.761 2.636,-0.253 1.358,0 0,0 M 0,8.798 C 1.675,8.798 3.312,8.597 4.922,8.201 6.527,7.8 8.044,7.229 9.48,6.489 10.911,5.75 12.231,4.853 13.442,3.786 14.646,2.724 15.681,1.525 16.553,0.19 c 0.865,-1.336 1.542,-2.788 2.034,-4.356 0.49,-1.567 0.732,-3.23 0.732,-4.995 0,-2.836 -0.474,-5.435 -1.436,-7.796 -0.955,-2.36 -2.292,-4.388 -4.013,-6.083 -1.723,-1.701 -3.762,-3.022 -6.122,-3.972 -2.36,-0.95 -4.943,-1.426 -7.748,-1.426 -1.869,0 -3.649,0.215 -5.329,0.645 -1.684,0.428 -3.237,1.044 -4.664,1.843 -1.42,0.797 -2.715,1.769 -3.866,2.91 -1.157,1.136 -2.135,2.424 -2.942,3.855 -0.808,1.431 -1.432,2.99 -1.865,4.674 -0.438,1.68 -0.66,3.464 -0.66,5.35 0,1.765 0.248,3.428 0.739,4.995 0.486,1.568 1.172,3.02 2.045,4.356 0.876,1.335 1.911,2.534 3.11,3.596 1.2,1.067 2.515,1.964 3.952,2.703 1.431,0.74 2.953,1.311 4.557,1.712 1.606,0.396 3.248,0.597 4.923,0.597"
         style="fill:#114781;fill-opacity:1;fill-rule:nonzero;stroke:none"
         transform="matrix(1.3333333,0,0,-1.3333333,849.4988,627.3152)"
         clip-path="url(#clipPath32)" />
      <path
         id="path33"
         d="m 0,0 v -5.834 h 9.978 v -7.694 H 0 V -27.239 H -9.073 V 7.693 H 10.996 V 0 Z"
         style="fill:#114781;fill-opacity:1;fill-rule:nonzero;stroke:none"
         transform="matrix(1.3333333,0,0,-1.3333333,895.39853,627.37907)"
         clip-path="url(#clipPath34)" />
      <path
         id="path35"
         d="M 0,0 V -8.176 H 14.355 V -18.945 H 0 v -8.43 H 15.148 V -38.149 H -12.706 V 10.773 H 15.148 V 0 Z"
         style="fill:#114781;fill-opacity:1;fill-rule:nonzero;stroke:none"
         transform="matrix(1.3333333,0,0,-1.3333333,968.03653,612.83213)"
         clip-path="url(#clipPath36)" />
      <path
         id="path37"
         d="M 0,0 H 12.707 L 36.03,-29.909 h 0.126 V 0 H 48.864 V -48.923 H 36.156 l -23.29,29.974 H 12.707 V -48.923 H 0 Z"
         style="fill:#114781;fill-opacity:1;fill-rule:nonzero;stroke:none"
         transform="matrix(1.3333333,0,0,-1.3333333,1008.5639,598.4676)"
         clip-path="url(#clipPath38)" />
      <path
         id="path39"
         d="m 0,0 c -0.043,-1.773 -0.117,-3.495 -0.222,-5.163 -0.106,-1.668 -0.333,-3.3 -0.682,-4.896 -0.348,-1.594 -0.844,-3.159 -1.49,-4.689 -0.643,-1.532 -1.515,-3.059 -2.614,-4.58 -1.204,-1.668 -2.545,-3.11 -4.024,-4.325 -1.478,-1.215 -3.073,-2.213 -4.784,-2.994 -1.711,-0.782 -3.518,-1.359 -5.42,-1.728 -1.902,-0.37 -3.877,-0.555 -5.926,-0.555 -3.844,0 -7.368,0.624 -10.568,1.87 -3.201,1.247 -5.953,3.006 -8.254,5.277 -2.304,2.27 -4.095,4.99 -5.372,8.159 -1.278,3.169 -1.917,6.676 -1.917,10.52 0,3.97 0.643,7.576 1.932,10.819 1.289,3.243 3.101,6.01 5.436,8.303 2.333,2.291 5.128,4.065 8.381,5.322 3.254,1.257 6.855,1.886 10.806,1.886 5.029,0 9.433,-1.136 13.214,-3.407 3.782,-2.27 6.729,-5.698 8.842,-10.282 L -14.736,4.498 c -0.444,1.163 -1.003,2.219 -1.68,3.169 -0.676,0.951 -1.458,1.77 -2.345,2.456 -0.886,0.687 -1.88,1.215 -2.978,1.585 -1.099,0.369 -2.292,0.554 -3.581,0.554 -2.092,0 -3.929,-0.454 -5.513,-1.362 -1.586,-0.909 -2.911,-2.097 -3.978,-3.565 -1.067,-1.469 -1.87,-3.121 -2.409,-4.96 -0.538,-1.836 -0.808,-3.684 -0.808,-5.543 0,-1.9 0.28,-3.765 0.84,-5.592 0.56,-1.827 1.384,-3.464 2.472,-4.912 1.087,-1.447 2.441,-2.608 4.056,-3.485 1.617,-0.877 3.471,-1.316 5.561,-1.316 1.373,0 2.657,0.18 3.85,0.539 1.194,0.36 2.24,0.893 3.138,1.601 0.898,0.708 1.632,1.59 2.203,2.645 0.569,1.057 0.919,2.293 1.046,3.709 H -25.258 V 0 Z"
         style="fill:#114781;fill-opacity:1;fill-rule:nonzero;stroke:none"
         transform="matrix(1.3333333,0,0,-1.3333333,1159.4611,627.28)"
         clip-path="url(#clipPath40)" />
      <path
         id="path41"
         d="m 895.417,302.146 h -12.708 v 48.923 h 12.708 z"
         style="fill:#114781;fill-opacity:1;fill-rule:nonzero;stroke:none"
         transform="matrix(1.3333333,0,0,-1.3333333,0,1066.56)"
         clip-path="url(#clipPath42)" />
      <path
         id="path43"
         d="m 0,0 h 12.707 l 23.322,-29.909 h 0.127 V 0 H 48.864 V -48.923 H 36.156 l -23.29,29.974 H 12.707 V -48.923 H 0 Z"
         style="fill:#114781;fill-opacity:1;fill-rule:nonzero;stroke:none"
         transform="matrix(1.3333333,0,0,-1.3333333,1215.2969,598.4676)"
         clip-path="url(#clipPath44)" />
      <path
         id="path45"
         d="M 0,0 V -8.176 H 14.354 V -18.945 H 0 v -8.43 H 15.147 V -38.149 H -12.707 V 10.773 H 15.147 V 0 Z"
         style="fill:#114781;fill-opacity:1;fill-rule:nonzero;stroke:none"
         transform="matrix(1.3333333,0,0,-1.3333333,1319.5392,612.83213)"
         clip-path="url(#clipPath46)" />
      <path
         id="path47"
         d="M 0,0 V -8.176 H 14.354 V -18.945 H 0 v -8.43 H 15.146 V -38.149 H -12.709 V 10.773 H 15.146 V 0 Z"
         style="fill:#114781;fill-opacity:1;fill-rule:nonzero;stroke:none"
         transform="matrix(1.3333333,0,0,-1.3333333,1378.1927,612.83213)"
         clip-path="url(#clipPath48)" />
      <path
         id="path49"
         d="m 0,0 h 1.236 c 1.035,0 2.08,0.068 3.137,0.206 1.057,0.137 2.007,0.422 2.853,0.856 0.843,0.43 1.532,1.043 2.058,1.835 0.529,0.793 0.793,1.855 0.793,3.185 0,1.331 -0.264,2.398 -0.793,3.201 -0.526,0.803 -1.215,1.42 -2.058,1.854 C 6.38,11.57 5.43,11.855 4.373,11.992 3.316,12.13 2.271,12.198 1.236,12.198 H 0 Z M 27.98,-26.997 H 12.137 L 0.158,-8.173 H 0 V -26.997 H -12.707 V 21.926 H 6.306 c 2.409,0 4.652,-0.296 6.734,-0.888 2.081,-0.592 3.882,-1.499 5.403,-2.726 1.52,-1.222 2.714,-2.781 3.58,-4.671 0.868,-1.892 1.299,-4.147 1.299,-6.766 0,-1.69 -0.231,-3.302 -0.696,-4.833 -0.464,-1.53 -1.152,-2.907 -2.06,-4.133 -0.908,-1.225 -2.028,-2.261 -3.359,-3.104 -1.33,-0.845 -2.862,-1.426 -4.595,-1.742 z"
         style="fill:#114781;fill-opacity:1;fill-rule:nonzero;stroke:none"
         transform="matrix(1.3333333,0,0,-1.3333333,1435.8099,627.70187)"
         clip-path="url(#clipPath50)" />
      <path
         id="path51"
         d="m 1128.268,302.146 h -12.708 v 48.923 h 12.708 z"
         style="fill:#114781;fill-opacity:1;fill-rule:nonzero;stroke:none"
         transform="matrix(1.3333333,0,0,-1.3333333,0,1066.56)"
         clip-path="url(#clipPath52)" />
      <path
         id="path53"
         d="M 0,0 H 12.708 L 36.03,-29.909 h 0.127 V 0 H 48.865 V -48.923 H 36.157 L 12.865,-18.949 H 12.708 V -48.923 H 0 Z"
         style="fill:#114781;fill-opacity:1;fill-rule:nonzero;stroke:none"
         transform="matrix(1.3333333,0,0,-1.3333333,1525.5951,598.4676)"
         clip-path="url(#clipPath54)" />
      <path
         id="path55"
         d="m 0,0 c -0.043,-1.773 -0.116,-3.495 -0.222,-5.163 -0.105,-1.668 -0.333,-3.3 -0.68,-4.896 -0.35,-1.594 -0.846,-3.159 -1.492,-4.689 -0.643,-1.532 -1.514,-3.059 -2.613,-4.58 -1.204,-1.668 -2.546,-3.11 -4.023,-4.325 -1.48,-1.215 -3.075,-2.213 -4.786,-2.994 -1.711,-0.782 -3.518,-1.359 -5.419,-1.728 -1.901,-0.37 -3.876,-0.555 -5.925,-0.555 -3.846,0 -7.368,0.624 -10.569,1.87 -3.201,1.247 -5.952,3.006 -8.255,5.277 -2.302,2.27 -4.093,4.99 -5.372,8.159 -1.278,3.169 -1.916,6.676 -1.916,10.52 0,3.97 0.644,7.576 1.931,10.819 1.289,3.243 3.102,6.01 5.436,8.303 2.335,2.291 5.129,4.065 8.381,5.322 3.254,1.257 6.856,1.886 10.807,1.886 5.028,0 9.433,-1.136 13.214,-3.407 3.781,-2.27 6.729,-5.698 8.842,-10.282 L -14.736,4.498 c -0.444,1.163 -1.003,2.219 -1.678,3.169 -0.677,0.951 -1.458,1.77 -2.347,2.456 -0.886,0.687 -1.88,1.215 -2.977,1.585 -1.099,0.369 -2.292,0.554 -3.581,0.554 -2.092,0 -3.93,-0.454 -5.514,-1.362 -1.585,-0.909 -2.91,-2.097 -3.978,-3.565 -1.067,-1.469 -1.87,-3.121 -2.409,-4.96 -0.538,-1.836 -0.806,-3.684 -0.806,-5.543 0,-1.9 0.28,-3.765 0.839,-5.592 0.56,-1.827 1.383,-3.464 2.471,-4.912 1.089,-1.447 2.441,-2.608 4.058,-3.485 1.615,-0.877 3.469,-1.316 5.56,-1.316 1.374,0 2.658,0.18 3.851,0.539 1.193,0.36 2.239,0.893 3.137,1.601 0.897,0.708 1.631,1.59 2.202,2.645 0.571,1.057 0.919,2.293 1.046,3.709 H -25.256 V 0 Z"
         style="fill:#114781;fill-opacity:1;fill-rule:nonzero;stroke:none"
         transform="matrix(1.3333333,0,0,-1.3333333,1674.7591,627.28)"
         clip-path="url(#clipPath56)" />
    </g>
    <g
       id="g92">
      <path
         id="path57"
         d="m 0,0 v -8.249 c 0.131,0.475 0.264,0.941 0.385,1.421 0.214,0.84 0.372,1.706 0.581,2.578 0.048,0.2 0.096,0.4 0.138,0.591 v 3.231 z"
         style="fill:#ffffff;fill-opacity:1;fill-rule:nonzero;stroke:none"
         transform="matrix(1.3333333,0,0,-1.3333333,297.78973,567.5528)"
         clip-path="url(#clipPath58)" />
      <path
         id="path59"
         d="m 0,0 2.506,-3.415 -67.627,-49.137 c 8.245,-12.819 13.061,-28.066 13.061,-44.455 0,-13.594 -3.33,-26.386 -9.161,-37.682 17.796,1.505 29.664,9.077 37.737,17.518 8.569,8.974 12.673,18.923 14.006,22.757 0.362,1.093 0.479,1.59 0.479,1.59 l 1.254,4.521 0.021,0.095 4.444,-1.838 24.346,-9.448 V 17.378 L -1.154,1.494 C -0.781,0.99 -0.367,0.507 0,0"
         style="fill:#b78b06;fill-opacity:1;fill-rule:nonzero;stroke:none"
         transform="matrix(1.3333333,0,0,-1.3333333,269.70187,434.894)"
         clip-path="url(#clipPath60)" />
      <path
         id="path61"
         d="m 0,0 c -0.291,-0.908 -0.583,-1.785 -0.877,-2.699 -0.253,-0.84 -0.515,-1.663 -0.781,-2.488 -0.306,-0.887 -0.645,-1.758 -0.965,-2.634 -0.314,-0.819 -0.585,-1.648 -0.918,-2.436 -0.335,-0.876 -0.692,-1.731 -1.054,-2.603 -0.343,-0.787 -0.647,-1.595 -1.014,-2.375 -0.378,-0.871 -0.784,-1.706 -1.178,-2.54 -0.357,-0.783 -0.723,-1.57 -1.09,-2.33 -0.415,-0.83 -0.854,-1.653 -1.284,-2.471 -0.393,-0.773 -0.787,-1.532 -1.202,-2.282 -0.435,-0.798 -0.918,-1.617 -1.38,-2.414 -0.409,-0.729 -0.835,-1.485 -1.286,-2.229 -0.457,-0.771 -0.978,-1.548 -1.472,-2.322 -0.461,-0.719 -0.908,-1.443 -1.386,-2.155 -0.499,-0.77 -1.035,-1.504 -1.555,-2.259 -0.502,-0.708 -0.972,-1.432 -1.476,-2.117 -0.542,-0.729 -1.096,-1.459 -1.638,-2.181 -0.536,-0.677 -1.04,-1.363 -1.571,-2.044 -0.568,-0.719 -1.162,-1.411 -1.753,-2.123 -0.541,-0.65 -1.083,-1.316 -1.641,-1.971 -0.602,-0.691 -1.222,-1.357 -1.813,-2.038 -0.582,-0.634 -1.152,-1.268 -1.747,-1.891 -0.609,-0.676 -1.264,-1.315 -1.895,-1.96 -0.607,-0.618 -1.196,-1.236 -1.806,-1.833 -0.642,-0.637 -1.329,-1.251 -1.989,-1.874 -0.631,-0.581 -1.241,-1.178 -1.867,-1.753 -0.151,-0.126 -0.299,-0.253 -0.446,-0.385 H 1.038 V 3.873 C 0.918,3.43 0.803,2.976 0.679,2.531 0.441,1.697 0.229,0.829 0,0"
         style="fill:#b78b06;fill-opacity:1;fill-rule:nonzero;stroke:none"
         transform="matrix(1.3333333,0,0,-1.3333333,296.4056,583.71493)"
         clip-path="url(#clipPath62)" />
      <path
         id="path63"
         d="m 0,0 c -3.33,-2.865 -5.133,-7.011 -5.839,-12.243 3.906,0.98 7.925,1.675 12.029,2.076 z"
         style="fill:#b78b06;fill-opacity:1;fill-rule:nonzero;stroke:none"
         transform="matrix(1.3333333,0,0,-1.3333333,71.716267,441.5632)"
         clip-path="url(#clipPath64)" />
      <path
         id="path65"
         d="M 0,0 C -0.05,-0.829 -0.095,-1.666 -0.106,-2.538 -0.158,-17.879 7.737,-37.732 11.756,-46.42 l 0.029,-0.063 21.879,16.14 L 13.763,2.332 C 9.05,1.944 4.447,1.162 0,0"
         style="fill:#b78b06;fill-opacity:1;fill-rule:nonzero;stroke:none"
         transform="matrix(1.3333333,0,0,-1.3333333,63.579467,461.45)"
         clip-path="url(#clipPath66)" />
      <path
         id="path67"
         d="m 0,0 23.781,16.999 v 4.626 H -22.005 C -13.826,15.433 -6.438,8.189 0,0"
         style="fill:#b78b06;fill-opacity:1;fill-rule:nonzero;stroke:none"
         transform="matrix(1.3333333,0,0,-1.3333333,266.08213,430.23973)"
         clip-path="url(#clipPath68)" />
      <path
         id="path69"
         d="m 0,0 c -11.72,6.792 -25.314,10.697 -39.828,10.697 -1.244,0 -2.482,-0.039 -3.713,-0.094 L -24.435,-20.76 1.595,-1.563 C 1.106,-1.078 0.57,-0.549 0,0"
         style="fill:#b78b06;fill-opacity:1;fill-rule:nonzero;stroke:none"
         transform="matrix(1.3333333,0,0,-1.3333333,143.7664,472.22013)"
         clip-path="url(#clipPath70)" />
      <path
         id="path71"
         d="M 0,0 -33.617,-24.42 0.802,-80.943 c 0.095,0 0.191,-0.005 0.283,-0.005 0.471,0 0.94,0 1.414,0.01 0.168,0.005 0.311,0.027 0.477,0.032 6.124,11.28 9.607,24.219 9.607,37.947 C 12.583,-27.124 7.952,-12.4 0,0"
         style="fill:#b78b06;fill-opacity:1;fill-rule:nonzero;stroke:none"
         transform="matrix(1.3333333,0,0,-1.3333333,180.1316,506.9572)"
         clip-path="url(#clipPath72)" />
      <path
         id="path73"
         d="M 0,0 C 11.725,0 22.869,-2.47 32.964,-6.897 31.219,-5.369 29.375,-3.79 27.382,-2.2 17.547,5.767 4.833,13.291 -4.339,13.291 h -0.266 c -2.763,-0.014 -5.142,-0.586 -7.326,-1.868 -0.087,-0.041 -0.148,-0.11 -0.227,-0.158 L -5.192,-0.177 C -3.476,-0.069 -1.746,0 0,0"
         style="fill:#b78b06;fill-opacity:1;fill-rule:nonzero;stroke:none"
         transform="matrix(1.3333333,0,0,-1.3333333,90.6628,454.59387)"
         clip-path="url(#clipPath74)" />
      <path
         id="path75"
         d="m 0,0 c 0.737,-0.909 1.574,-1.955 2.578,-3.127 3.338,-3.929 8.146,-9.173 14.001,-14.377 10.927,-9.749 25.454,-19.117 40.356,-20.315 l -33.438,54.9 z"
         style="fill:#b78b06;fill-opacity:1;fill-rule:nonzero;stroke:none"
         transform="matrix(1.3333333,0,0,-1.3333333,101.2468,564.2852)"
         clip-path="url(#clipPath76)" />
      <path
         id="path77"
         d="m 0,0 c -0.563,-0.005 -1.11,-0.016 -1.693,-0.016 -0.111,0 -0.224,0.011 -0.346,0.011 -7.664,-11.162 -18.023,-20.326 -30.126,-26.589 H 16.398 L 0.197,0.017 C 0.126,0.017 0.063,0.006 0,0"
         style="fill:#114781;fill-opacity:1;fill-rule:nonzero;stroke:none"
         transform="matrix(1.3333333,0,0,-1.3333333,183.836,626.13293)"
         clip-path="url(#clipPath78)" />
      <path
         id="path79"
         d="m 0,0 -29.384,-21.664 -2.268,4.409 c -0.048,0.291 -14.733,28.24 -14.941,52.048 -3.803,-1.479 -7.469,-3.243 -10.97,-5.26 V -62.38 l 66.431,47.819 z"
         style="fill:#114781;fill-opacity:1;fill-rule:nonzero;stroke:none"
         transform="matrix(1.3333333,0,0,-1.3333333,114.338,511.562)"
         clip-path="url(#clipPath80)" />
      <path
         id="path81"
         d="M 0,0 C 0.752,0.597 1.492,1.193 2.224,1.812 2.718,2.219 3.18,2.651 3.65,3.079 4.365,3.708 5.076,4.32 5.794,4.965 6.251,5.393 6.718,5.847 7.159,6.29 c 0.695,0.645 1.377,1.294 2.052,1.965 0.454,0.471 0.906,0.934 1.363,1.41 0.636,0.655 1.312,1.326 1.92,2.013 0.454,0.474 0.869,0.971 1.309,1.473 0.634,0.692 1.26,1.373 1.855,2.091 0.44,0.502 0.844,1.021 1.269,1.543 0.578,0.708 1.178,1.408 1.732,2.137 0.434,0.534 0.843,1.099 1.258,1.648 0.541,0.708 1.088,1.416 1.611,2.144 0.414,0.575 0.803,1.15 1.198,1.724 0.516,0.719 1.017,1.458 1.522,2.199 0.375,0.596 0.747,1.198 1.13,1.8 0.462,0.74 0.961,1.479 1.418,2.229 0.356,0.623 0.729,1.272 1.088,1.911 0.435,0.73 0.872,1.469 1.297,2.24 0.356,0.65 0.699,1.315 1.035,1.964 0.404,0.762 0.813,1.511 1.196,2.278 0.327,0.68 0.631,1.362 0.956,2.042 0.361,0.776 0.75,1.543 1.104,2.313 0.314,0.703 0.586,1.421 0.898,2.134 0.319,0.776 0.654,1.532 0.966,2.307 0.293,0.735 0.558,1.464 0.845,2.204 0.272,0.781 0.578,1.552 0.866,2.338 0.248,0.746 0.505,1.491 0.74,2.256 0.269,0.787 0.531,1.574 0.789,2.371 0.225,0.762 0.431,1.56 0.663,2.331 0.188,0.729 0.414,1.442 0.586,2.176 L 24.569,67.81 c -0.094,-0.238 -0.211,-0.502 -0.308,-0.767 -0.138,-0.327 -0.264,-0.633 -0.402,-0.977 -0.153,-0.337 -0.335,-0.722 -0.491,-1.096 -0.142,-0.307 -0.28,-0.603 -0.422,-0.925 -0.188,-0.412 -0.415,-0.829 -0.603,-1.252 -0.147,-0.332 -0.311,-0.639 -0.477,-0.966 -0.222,-0.444 -0.468,-0.892 -0.711,-1.348 -0.2,-0.358 -0.361,-0.696 -0.573,-1.055 -0.24,-0.449 -0.52,-0.93 -0.803,-1.384 -0.203,-0.391 -0.42,-0.761 -0.641,-1.158 -0.314,-0.486 -0.645,-1.003 -0.962,-1.5 -0.261,-0.396 -0.465,-0.755 -0.723,-1.12 C 17.096,53.713 16.684,53.143 16.31,52.578 16.061,52.234 15.824,51.886 15.552,51.531 14.907,50.603 14.203,49.704 13.474,48.78 4.434,37.447 -10.885,25.802 -34.394,24.118 l 16.318,-26.795 h 14.659 c 0.658,0.49 1.313,0.966 1.97,1.474 0.491,0.4 0.969,0.807 1.447,1.203"
         style="fill:#114781;fill-opacity:1;fill-rule:nonzero;stroke:none"
         transform="matrix(1.3333333,0,0,-1.3333333,233.74547,658.02227)"
         clip-path="url(#clipPath82)" />
      <path
         id="path83"
         d="m 0,0 c -1.732,2.123 -3.557,4.161 -5.487,6.084 -2.252,2.255 -4.653,4.357 -7.162,6.327 l -29.376,-21.67 8.886,-14.587 z"
         style="fill:#114781;fill-opacity:1;fill-rule:nonzero;stroke:none"
         transform="matrix(1.3333333,0,0,-1.3333333,173.08533,497.2032)"
         clip-path="url(#clipPath84)" />
      <path
         id="path85"
         d="m 0,0 c -12.475,11.098 -20.278,22.071 -20.405,22.236 l -1.5,2.112 -36.823,-26.497 V -49.17 H 12.95 c 9.184,4.019 17.469,9.701 24.459,16.693 3.092,3.091 5.928,6.454 8.477,10.023 C 27.726,-21.172 11.765,-10.403 0,0"
         style="fill:#114781;fill-opacity:1;fill-rule:nonzero;stroke:none"
         transform="matrix(1.3333333,0,0,-1.3333333,115.89067,596.03133)"
         clip-path="url(#clipPath86)" />
      <path
         id="path87"
         d="m 0,0 c -0.166,-0.005 -0.309,-0.026 -0.477,-0.031 -0.474,-0.011 -0.943,-0.011 -1.414,-0.011 -0.092,0 -0.187,0.005 -0.282,0.005 l -34.419,56.523 33.616,24.42 C 4.976,68.506 9.607,53.782 9.607,37.947 9.607,24.22 6.124,11.28 0,0 m -45.56,20.406 c -5.855,5.204 -10.664,10.448 -14.002,14.377 -1.003,1.173 -1.84,2.218 -2.577,3.127 l 23.497,17.081 33.438,-54.9 C -20.106,1.289 -34.633,10.657 -45.56,20.406 m -4.725,58.557 29.376,21.67 c 2.509,-1.97 4.909,-4.072 7.161,-6.327 1.931,-1.923 3.756,-3.961 5.488,-6.084 L -41.399,64.375 Z m -4.4,7.236 -19.105,31.363 c 1.23,0.055 2.469,0.094 3.713,0.094 14.514,0 28.108,-3.905 39.827,-10.697 0.571,-0.549 1.106,-1.078 1.596,-1.563 z m -23.919,-17.646 -0.03,0.064 c -4.018,8.688 -11.914,28.541 -11.862,43.882 0.011,0.872 0.056,1.709 0.106,2.538 4.448,1.161 9.05,1.944 13.764,2.332 l 19.9,-32.676 z m -5.683,61.399 6.19,-10.167 c -4.104,-0.401 -8.123,-1.096 -12.029,-2.076 0.706,5.231 2.509,9.377 5.839,12.243 m 2.279,1.65 c 2.184,1.281 4.563,1.854 7.325,1.868 h 0.267 c 9.171,0 21.886,-7.524 31.721,-15.491 1.993,-1.59 3.837,-3.169 5.582,-4.698 -10.095,4.428 -21.239,6.898 -32.964,6.898 -1.746,0 -3.476,-0.069 -5.193,-0.177 l -6.965,11.442 c 0.079,0.047 0.14,0.117 0.227,0.158 M 60.922,44.908 56.479,46.746 56.457,46.65 55.203,42.13 c 0,0 -0.117,-0.497 -0.478,-1.59 C 53.391,36.706 49.287,26.757 40.718,17.782 32.645,9.342 20.777,1.77 2.981,0.265 c 5.832,11.296 9.162,24.088 9.162,37.682 0,16.389 -4.817,31.636 -13.061,44.454 l 67.626,49.138 -2.506,3.415 c -0.367,0.506 -0.781,0.989 -1.154,1.494 l 22.22,15.884 v 3.111 L 61.487,138.444 c -6.438,8.19 -13.826,15.433 -22.005,21.625 H 24.469 c 11.532,-6.925 21.726,-15.844 30.203,-26.536 L -6.2,89.705 c -3.731,4.616 -7.952,8.794 -12.589,12.495 l 2.797,2.066 -3.172,3.442 c -0.084,0.101 -7.685,8.433 -18.274,16.862 -10.652,8.371 -23.999,17.178 -37.245,17.342 -3.977,0 -7.99,-0.906 -11.598,-3.037 -0.119,-0.069 -0.217,-0.169 -0.341,-0.237 l -10.003,16.43 h -0.002 l -3.042,5.001 h -2.96 l 3.176,-5.215 h -0.003 l 10.764,-17.674 c -6.99,-5.353 -9.763,-13.666 -10.145,-22.18 -3.827,-1.429 -7.514,-3.14 -11.047,-5.1 v -2.915 c 3.502,2.017 7.167,3.782 10.97,5.261 0.208,-23.808 14.893,-51.758 14.941,-52.048 l 2.268,-4.409 29.384,21.664 8.868,-14.561 -66.431,-47.82 v -3.121 l 36.823,26.498 1.5,-2.113 c 0.126,-0.164 7.93,-11.138 20.405,-22.235 11.764,-10.404 27.725,-21.172 45.885,-22.455 -2.548,-3.569 -5.384,-6.931 -8.477,-10.022 -6.989,-6.992 -15.274,-12.675 -24.458,-16.693 h 5.844 c 12.103,6.262 22.462,15.426 30.126,26.589 0.121,0 0.235,-0.011 0.345,-0.011 0.584,0 1.131,0.011 1.694,0.015 0.063,0.006 0.126,0.017 0.197,0.017 l 16.201,-26.61 h 2.958 L 2.841,-8.274 c 23.509,1.683 38.827,13.329 47.867,24.662 0.73,0.924 1.434,1.822 2.079,2.751 0.272,0.354 0.509,0.703 0.757,1.047 0.375,0.564 0.787,1.134 1.144,1.683 0.258,0.365 0.461,0.725 0.723,1.12 0.317,0.497 0.648,1.014 0.962,1.5 0.221,0.398 0.438,0.768 0.641,1.158 0.283,0.455 0.563,0.935 0.803,1.384 0.212,0.36 0.372,0.698 0.573,1.056 0.243,0.455 0.488,0.903 0.711,1.348 0.166,0.327 0.33,0.633 0.477,0.966 0.188,0.422 0.415,0.839 0.603,1.251 0.142,0.323 0.28,0.619 0.422,0.925 0.156,0.374 0.338,0.759 0.491,1.097 0.137,0.343 0.264,0.649 0.402,0.977 0.097,0.264 0.214,0.529 0.308,0.766 L 77.06,29.139 C 76.888,28.404 76.662,27.691 76.474,26.963 76.242,26.191 76.036,25.394 75.811,24.632 75.553,23.834 75.291,23.048 75.022,22.261 74.787,21.495 74.53,20.75 74.282,20.005 73.994,19.219 73.688,18.447 73.416,17.666 73.128,16.927 72.864,16.197 72.571,15.463 72.259,14.688 71.924,13.932 71.604,13.155 71.293,12.442 71.021,11.725 70.707,11.021 70.353,10.251 69.964,9.484 69.603,8.708 69.278,8.028 68.974,7.347 68.647,6.666 68.264,5.899 67.855,5.15 67.451,4.389 67.115,3.739 66.772,3.074 66.416,2.425 65.991,1.653 65.554,0.914 65.119,0.185 64.76,-0.454 64.387,-1.104 64.031,-1.727 c -0.457,-0.75 -0.956,-1.489 -1.418,-2.228 -0.383,-0.603 -0.756,-1.204 -1.131,-1.801 -0.504,-0.74 -1.005,-1.479 -1.521,-2.198 -0.396,-0.574 -0.784,-1.15 -1.198,-1.725 -0.523,-0.727 -1.07,-1.435 -1.611,-2.143 -0.415,-0.55 -0.824,-1.115 -1.258,-1.649 -0.554,-0.728 -1.154,-1.428 -1.732,-2.136 -0.425,-0.523 -0.829,-1.041 -1.269,-1.543 -0.595,-0.718 -1.221,-1.4 -1.855,-2.091 -0.44,-0.502 -0.855,-0.999 -1.309,-1.474 -0.608,-0.686 -1.284,-1.357 -1.92,-2.013 -0.457,-0.475 -0.909,-0.939 -1.363,-1.41 -0.675,-0.671 -1.357,-1.32 -2.052,-1.965 -0.441,-0.443 -0.908,-0.897 -1.365,-1.325 -0.718,-0.644 -1.429,-1.257 -2.144,-1.885 -0.47,-0.428 -0.932,-0.861 -1.426,-1.268 -0.732,-0.618 -1.472,-1.215 -2.224,-1.812 -0.478,-0.396 -0.956,-0.802 -1.447,-1.203 -0.658,-0.508 -1.312,-0.983 -1.97,-1.473 h 13.328 c 0.147,0.131 0.295,0.258 0.446,0.384 0.626,0.576 1.236,1.173 1.867,1.754 0.66,0.622 1.347,1.237 1.989,1.874 0.61,0.597 1.198,1.215 1.806,1.833 0.631,0.645 1.286,1.284 1.895,1.96 0.595,0.623 1.165,1.257 1.747,1.891 0.591,0.681 1.211,1.347 1.813,2.038 0.558,0.655 1.1,1.321 1.641,1.971 0.591,0.712 1.185,1.404 1.753,2.123 0.531,0.68 1.035,1.367 1.571,2.044 0.542,0.722 1.096,1.452 1.638,2.18 0.504,0.686 0.974,1.41 1.476,2.118 0.52,0.754 1.056,1.489 1.555,2.259 0.478,0.712 0.925,1.436 1.386,2.155 0.494,0.774 1.015,1.55 1.472,2.322 0.451,0.744 0.877,1.5 1.286,2.228 0.462,0.798 0.945,1.617 1.38,2.414 0.415,0.75 0.809,1.51 1.202,2.283 0.43,0.818 0.869,1.641 1.284,2.47 0.367,0.761 0.733,1.548 1.09,2.33 0.394,0.834 0.8,1.669 1.178,2.541 0.367,0.78 0.671,1.587 1.014,2.375 0.362,0.872 0.719,1.727 1.054,2.603 0.332,0.788 0.604,1.617 0.918,2.436 0.32,0.876 0.659,1.747 0.965,2.634 0.266,0.825 0.528,1.648 0.781,2.488 0.293,0.914 0.586,1.791 0.877,2.699 0.229,0.829 0.441,1.697 0.679,2.531 0.124,0.444 0.239,0.899 0.359,1.342 v 8.248 z"
         style="fill:#ffffff;fill-opacity:1;fill-rule:nonzero;stroke:none"
         transform="matrix(1.3333333,0,0,-1.3333333,184.09907,614.83213)"
         clip-path="url(#clipPath88)" />
      <path
         id="path89"
         d="m 0,0 h -124.139 l 3.043,-5.001 h 0.002 l 10.003,-16.431 c 0.124,0.069 0.221,0.169 0.341,0.238 3.607,2.131 7.621,3.036 11.598,3.036 13.246,-0.163 26.592,-8.97 37.245,-17.342 10.589,-8.428 18.19,-16.761 18.274,-16.861 l 3.172,-3.443 -2.797,-2.065 c 4.637,-3.701 8.858,-7.879 12.589,-12.495 l 60.872,43.827 C 21.726,-15.844 11.532,-6.926 0,0 M -123.922,-5.215 -127.099,0 h -7.254 v -50.169 c 3.533,1.96 7.22,3.671 11.046,5.1 0.383,8.513 3.156,16.826 10.145,22.179 l -10.763,17.675 z"
         style="fill:#114781;fill-opacity:1;fill-rule:nonzero;stroke:none"
         transform="matrix(1.3333333,0,0,-1.3333333,216.72467,401.4064)"
         clip-path="url(#clipPath90)" />
    </g>
  </g>
</svg>
